# xmcd CD database file
#
# Track frame offsets:
#	150
#	14702
#	27455
#	34652
#	52487
#	59697
#	85800
#	108147
#	122882
#	128145
#	150040
#	159092
#	244742
#	258647
#	276407
#	300380
#	325560
#
# Disc length: 4657 seconds
#
# Revision: 2
# Processed by: cddbd v1.5PL3 Copyright (c) Steve Scherf et al.
# Submitted via: CDex 1.50
#
DISCID=e3122f11
DTITLE=Gryphon - Gryphon - Midnight Mushrumps
DYEAR=1973
DGENRE=Progressive Rock
TTITLE0=Kemp's Jig
TTITLE1=Sir Gavin Grimbold
TTITLE2=Touch And Go
TTITLE3=Three Jolly Butchers
TTITLE4=Pastime With Good Company
TTITLE5=The Unquiet Grave
TTITLE6=Estampie
TTITLE7=The Astrologer
TTITLE8=Tea Wrecks
TTITLE9=Juniper Suite
TTITLE10=The Devil And The Farmer's Wife
TTITLE11=Midnight Mushrumps
TTITLE12=The Ploughboy's Dream
TTITLE13=The Last Flash Of Gaberdine Tailor
TTITLE14=Gulland Rock
TTITLE15=Dubbel Dutch
TTITLE16=Ethelion
EXTD=YEAR: 1973 and 1974
EXTT0=
EXTT1=
EXTT2=
EXTT3=
EXTT4=
EXTT5=
EXTT6=
EXTT7=
EXTT8=
EXTT9=
EXTT10=
EXTT11=
EXTT12=
EXTT13=
EXTT14=
EXTT15=
EXTT16=
PLAYORDER=
